PathFileType	3	(X/Y/Z)	F:\ViconData\AntennenMessung\Messung1\Session1\ID01.trc
DataRate	CameraRate	NumFrames	NumMarkers	Units	OrigDataRate	OrigDataStartFrame	OrigNumFrames
120.0	120.0	4	70	mm	120.0	359	957	
Frame#	Time	Ashort			Along			Atop			A4			Bshort			Blong			Btop			B4			Cshort			Clong			Ctop			C4			Dshort			Dlong			Dtop			D4			Eshort			Elong			Etop			E4			Fshort			Flong			Ftop			F4			Gshort			Glong			Gtop			G4			Hshort			Hlong			Htop			H4			I1			I2			I3			I4			I5			WandAshort			WandAlong			WandAtop			WandA4			WandA15			WandBshort			WandB4			WandB5			WandBtop			WandBlong			WandCshort			WandClong			WandCtop			WandC4			WandC5			Acenter			Aantenna			Bcenter			Bantenna			Ccenter			Cantenna			Dcenter			Dantenna			Ecenter			Eantenna			Fcenter			Fantenna			Gcenter			Gantenna			Hcenter			Hantenna			Icenter			Iantenna			
		X1	Y1	Z1	X2	Y2	Z2	X3	Y3	Z3	X4	Y4	Z4	X5	Y5	Z5	X6	Y6	Z6	X7	Y7	Z7	X8	Y8	Z8	X9	Y9	Z9	X10	Y10	Z10	X11	Y11	Z11	X12	Y12	Z12	X13	Y13	Z13	X14	Y14	Z14	X15	Y15	Z15	X16	Y16	Z16	X17	Y17	Z17	X18	Y18	Z18	X19	Y19	Z19	X20	Y20	Z20	X21	Y21	Z21	X22	Y22	Z22	X23	Y23	Z23	X24	Y24	Z24	X25	Y25	Z25	X26	Y26	Z26	X27	Y27	Z27	X28	Y28	Z28	X29	Y29	Z29	X30	Y30	Z30	X31	Y31	Z31	X32	Y32	Z32	X33	Y33	Z33	X34	Y34	Z34	X35	Y35	Z35	X36	Y36	Z36	X37	Y37	Z37	X38	Y38	Z38	X39	Y39	Z39	X40	Y40	Z40	X41	Y41	Z41	X42	Y42	Z42	X43	Y43	Z43	X44	Y44	Z44	X45	Y45	Z45	X46	Y46	Z46	X47	Y47	Z47	X48	Y48	Z48	X49	Y49	Z49	X50	Y50	Z50	X51	Y51	Z51	X52	Y52	Z52	X53	Y53	Z53	X54	Y54	Z54	X55	Y55	Z55	X56	Y56	Z56	X57	Y57	Z57	X58	Y58	Z58	X59	Y59	Z59	X60	Y60	Z60	X61	Y61	Z61	X62	Y62	Z62	X63	Y63	Z63	X64	Y64	Z64	X65	Y65	Z65	X66	Y66	Z66	X67	Y67	Z67	X68	Y68	Z68	X69	Y69	Z69	X70	Y70	Z70	
359	2.9833333	-1038.2169	214.37115	-1644.1713	-1109.1453	203.22339	-1599.6974	-1063.5189	173.25414	-1625.6025	-1054.0914	262.04385	-1634.9196	-1352.9738	235.32811	1003.9943	-1281.3481	227.10988	1052.3938	-1323.1359	194.24002	1020.7747	-1284.521	287.9577	1052.7385	814.2666	187.53531	1209.3127	892.33167	178.45517	1179.2448	844.33734	145.53793	1198.1342	860.61377	292.47095	1167.165	1115.8456	209.79593	-1401.7101	1056.2361	194.19003	-1460.2164	1095.0093	162.15329	-1423.7279	1069.9225	238.65295	-1425.9003	-1204.5935	1686.0253	-1563.0909	-1129.1034	1688.1688	-1605.9838	-1173.0685	1724.4058	-1582.0034	-1133.5269	1581.125	-1603.5061	-1239.6632	1699.2908	1119.243	-1309.3235	1698.8224	1071.7472	-1270.306	1736.1886	1096.6382	-1244.5869	1594.0403	1106.4261	988.88513	1664.2316	1162.2787	957.48303	1700.3975	1183.6641	921.74286	1662.3164	1214.7651	939.77661	1659.4282	1159.9249	999.24866	1668.5969	-1579.494	1058.9777	1670.1781	-1518.6364	1025.1149	1708.0106	-1551.1292	1059.3397	1672.1803	-1585.5262	-544.94189	141.47815	-348.91705	-539.30072	147.30913	-432.46045	-573.63885	143.32593	-386.85434	-495.16257	142.19507	-383.4967	-541.63092	107.13103	-389.57544																																														-1068.8314	209.55948	-1624.975	-1074.4775	248.14287	-1624.3082	-1321.7502	231.74557	1025.0929	-1320.3201	270.46356	1029.5505	848.05762	183.60489	1196.2975	851.84674	222.37529	1194.427	1088.8164	202.71967	-1428.2388	1082.9661	241.04214	-1432.5002	-1171.8348	1686.9553	-1581.704	-1170.5509	1647.9778	-1581.3923	-1270.9325	1699.0803	1097.923	-1271.5903	1660.1093	1099.2722	952.80151	1705.7892	1186.8523	972.896	1733.9153	1168.7931	1026.6221	1669.3215	-1551.6031	1028.1401	1630.354	-1552.0808	-542.52515	143.9762	-384.70804	-503.62604	144.78922	-382.02469
360	2.9916667	-1038.2092	214.34882	-1644.1761	-1109.1636	203.17175	-1599.6636	-1063.7129	172.74062	-1625.3237	-1054.1074	262.03235	-1634.9222	-1352.9761	235.10561	1004.0133	-1281.3043	227.25616	1052.2076	-1323.074	194.26028	1020.81	-1284.484	287.9303	1052.7518	814.24841	187.5347	1209.3584	892.16229	178.40335	1179.3024	844.29004	145.57877	1198.1036	860.50861	292.56491	1167.0996	1115.8446	209.80148	-1401.7037	1056.3243	194.15523	-1460.1573	1095.0349	162.23244	-1423.6974	1069.9336	238.65662	-1425.9215	-1204.4796	1685.9431	-1563.2902	-1129.1108	1688.1934	-1606.0057	-1173.0774	1724.4159	-1582.0015	-1133.5231	1581.1302	-1603.4919	-1239.6587	1699.2577	1119.2285	-1309.3485	1698.8448	1071.7429	-1270.2969	1736.1786	1096.6385	-1244.6259	1593.9821	1106.3628	988.83978	1664.2031	1162.2528	957.11609	1700.6572	1183.6174	921.8642	1662.358	1214.6987	939.83539	1659.3544	1159.9368	999.26617	1668.5767	-1579.4639	1058.9677	1670.1608	-1518.6375	1025.1088	1708.0154	-1551.1265	1059.3445	1672.1753	-1585.5332	-544.92139	141.41982	-348.88809	-539.26917	147.32553	-432.46524	-573.70789	143.50504	-386.74219	-495.08514	141.94702	-383.02148	-541.59631	107.20807	-389.51892																																														-1069.1494	209.47495	-1624.766	-1074.8585	248.05037	-1624.1802	-1321.7841	231.68945	1024.9877	-1320.449	270.42603	1029.3114	848.05383	183.57277	1196.3175	851.89435	222.34041	1194.4952	1088.8412	202.703	-1428.2233	1082.9768	241.02072	-1432.5083	-1171.8378	1686.9176	-1581.7898	-1170.5496	1647.9395	-1581.5701	-1270.944	1699.0723	1097.911	-1271.6238	1660.1012	1099.2474	952.72748	1705.7002	1186.5729	972.72723	1733.7863	1168.3472	1026.6165	1669.3024	-1551.598	1028.134	1630.3347	-1552.0729	-542.50616	143.94336	-384.60101	-503.60144	144.48987	-381.9313
361	3	-1038.1951	214.39523	-1644.2045	-1109.2422	203.3884	-1599.6177	-1063.7501	172.76436	-1625.3022	-1054.0792	262.0921	-1634.9342	-1353.0614	235.03455	1004.0292	-1281.2769	227.23219	1052.1974	-1323.1101	194.24718	1020.7681	-1284.5319	287.94089	1052.7457	814.21417	187.45012	1209.4707	892.33099	178.38609	1179.2776	844.5506	145.33403	1198.2234	860.56897	292.33197	1167.1899	1115.8395	209.79861	-1401.7153	1056.3141	194.2296	-1460.2396	1095.0178	162.22667	-1423.7499	1069.9124	238.64409	-1425.9025	-1204.4928	1685.938	-1563.2926	-1129.0767	1688.2008	-1606.0286	-1173.0723	1724.3994	-1582.0026	-1133.5537	1581.1454	-1603.5365	-1239.6759	1699.2853	1119.2491	-1309.3533	1698.8687	1071.7595	-1270.2933	1736.1638	1096.6324	-1244.6467	1593.8683	1106.4741	988.92194	1664.2559	1162.3082	957.45618	1700.373	1183.6827	921.91437	1662.3014	1214.7601	939.78278	1659.3911	1159.9075	999.26617	1668.5768	-1579.4872	1058.9696	1670.1669	-1518.6335	1025.1105	1708.0104	-1551.1335	1059.3348	1672.182	-1585.5428	-544.91473	141.4019	-348.87457	-539.29285	147.3105	-432.46185	-573.71857	143.5043	-386.80722	-495.17361	142.23961	-383.52451	-541.61835	107.20399	-389.54413																																														-1069.1345	209.60201	-1624.788	-1074.7743	248.18829	-1624.2494	-1321.8613	231.64336	1024.9647	-1320.568	270.37875	1029.3115	848.24286	183.50169	1196.3181	851.99353	222.27264	1194.3828	1088.8484	202.73903	-1428.2524	1083.0122	241.0639	-1432.5118	-1171.8328	1686.9178	-1581.7999	-1170.5439	1647.9397	-1581.5895	-1270.9558	1699.0981	1097.9297	-1271.6525	1660.1283	1099.2936	952.79498	1705.7231	1186.8491	972.81714	1733.8766	1168.7523	1026.6216	1669.3053	-1551.6047	1028.1429	1630.3379	-1552.0792	-542.50665	143.93274	-384.6777	-503.60077	144.4668	-382.02328
362	3.0083333	-1038.1851	214.34042	-1644.1674	-1109.2535	203.39784	-1599.6228	-1063.7461	172.75424	-1625.3278	-1054.1207	262.05737	-1634.9479	-1353.0004	235.28198	1004.0087	-1281.2825	226.97034	1052.3936	-1323.0306	194.20644	1020.7939	-1284.4927	287.96124	1052.7692	814.25922	187.3817	1209.3973	892.12317	178.39163	1179.3391	844.30182	145.65247	1198.0577	860.60492	292.49838	1167.1678	1115.8472	209.80237	-1401.7028	1056.3264	194.23793	-1460.2607	1095.0292	162.19722	-1423.7267	1069.9296	238.67827	-1425.9211	-1204.5654	1686.0065	-1563.1443	-1129.1108	1688.1895	-1606.007	-1173.0585	1724.4133	-1582.0078	-1133.5344	1581.1233	-1603.5026	-1239.6687	1699.2976	1119.2469	-1309.3728	1698.9181	1071.7777	-1270.29	1736.1661	1096.6392	-1244.6527	1593.7886	1106.42	988.88501	1664.2474	1162.2827	957.41418	1700.4044	1183.6256	921.79187	1662.3221	1214.7631	939.84674	1659.3918	1159.9218	999.27576	1668.5583	-1579.4504	1058.9814	1670.1757	-1518.6301	1025.1096	1708.0101	-1551.1294	1059.3453	1672.184	-1585.5551	-544.92566	141.44009	-348.88992	-539.28589	147.30905	-432.45538	-573.65729	143.31679	-386.8472	-495.08914	141.93698	-382.98828	-541.59198	107.22974	-389.52625																																														-1069.0854	209.58258	-1624.7993	-1074.6807	248.17516	-1624.2456	-1321.6407	231.6476	1025.1655	-1320.2037	270.35815	1029.6855	848.01654	183.4841	1196.3657	851.82397	222.25905	1194.6315	1088.8696	202.74785	-1428.2438	1083.0477	241.07382	-1432.5132	-1171.8243	1686.9536	-1581.7432	-1170.5402	1647.9758	-1581.4678	-1270.9683	1699.1271	1097.9315	-1271.6821	1660.1573	1099.2913	952.74268	1705.7715	1186.7936	972.78271	1733.9039	1168.684	1026.6265	1669.2991	-1551.589	1028.1534	1630.3318	-1552.0518	-542.50885	143.95511	-384.70013	-503.60931	144.75227	-382.01886
